<svg xmlns="http://www.w3.org/2000/svg" width="512" height="512" viewBox="0 0 512 512" version="1.1">
	<path d="M 233.500 28.602 C 215.655 31.043, 207.637 33.840, 200.448 40.131 C 197.283 42.900, 193.609 45.578, 192.282 46.083 C 190.955 46.587, 185.352 47, 179.829 47 C 166.630 47, 160.216 48.725, 144.500 56.500 C 130.197 63.576, 124.942 67.436, 117.620 76.248 C 113.526 81.175, 111.239 82.836, 103.408 86.570 C 95.485 90.347, 92.659 92.416, 84.708 100.260 C 70.266 114.508, 59.562 131.199, 55.451 145.878 C 53.863 151.549, 52.817 153.100, 46.013 159.878 C 41.673 164.202, 36.793 170.313, 34.737 174 C 24.586 192.201, 16.293 223.044, 14.437 249.500 C 13.881 257.425, 14.105 259.432, 16.315 266.307 C 18.741 273.856, 18.805 274.752, 18.261 293.517 L 17.699 312.921 23.429 319.711 C 26.581 323.445, 33.399 330.846, 38.580 336.157 L 48 345.814 48 361.850 C 48 377.288, 48.083 377.945, 50.223 379.443 C 52.182 380.816, 60.585 381, 121.146 381 L 189.847 381 192.673 383.383 C 194.228 384.693, 197.300 389.268, 199.500 393.548 L 203.500 401.331 204.046 434.916 C 204.346 453.387, 204.683 468.574, 204.796 468.664 C 204.908 468.754, 208.488 471.731, 212.750 475.280 C 222.155 483.111, 234.748 491.432, 239.636 493.045 C 244.730 494.726, 251.968 493.761, 258.305 490.554 C 265.215 487.058, 283.637 473.415, 287.250 469.117 C 289.957 465.898, 290.003 465.615, 290.161 451.173 C 290.559 414.989, 290.718 412.079, 292.443 409.447 C 293.357 408.052, 295.292 406.459, 296.742 405.908 C 298.430 405.266, 318.853 405.031, 353.440 405.253 L 407.500 405.601 418.961 408.906 C 433.453 413.084, 440.024 412.949, 445.696 408.359 C 450.645 404.353, 454 397.844, 454 392.247 C 454 387.099, 455.655 384.348, 464.174 375.337 C 468.494 370.766, 470 368.430, 470 366.299 C 470 364.718, 468.630 356.528, 466.955 348.098 C 465.280 339.669, 464.061 332.317, 464.247 331.760 C 464.432 331.204, 471.540 327.533, 480.042 323.602 L 495.500 316.454 495.558 295.477 C 495.605 278.628, 495.966 273.229, 497.389 268.044 C 498.717 263.207, 498.998 259.821, 498.510 254.544 C 496.224 229.809, 489.349 199.790, 481.324 179.500 C 476.435 167.138, 469.622 154.087, 465.614 149.404 C 463.775 147.255, 460.234 141.448, 457.745 136.499 C 447.359 115.845, 427.214 94.068, 411.807 86.839 C 406.487 84.343, 404.044 82.466, 401.361 78.811 C 394.762 69.821, 386.413 63.339, 372.536 56.433 C 360.629 50.506, 358.681 49.854, 350.036 48.893 C 339.551 47.728, 338.665 47.396, 331.500 41.946 C 325.044 37.036, 319.155 34.557, 309.385 32.638 C 293.565 29.531, 290.776 29.518, 281.413 32.499 C 271.509 35.653, 267.738 35.443, 259.667 31.292 C 255.355 29.074, 253.010 28.597, 245.500 28.412 C 240.550 28.291, 235.150 28.376, 233.500 28.602 M 214.131 62.474 C 201.483 65.351, 191.094 71.393, 176.717 84.231 C 171.886 88.545, 166.936 92.445, 165.717 92.897 C 164.498 93.350, 159.569 94.031, 154.764 94.411 C 143.755 95.282, 136.385 97.168, 127.500 101.388 C 108.713 110.311, 99.396 121.923, 91.478 146.282 C 88.996 153.919, 86.251 161.548, 85.379 163.234 C 84.507 164.920, 79.452 170.870, 74.147 176.456 C 64.278 186.846, 58.616 195.410, 59.182 199.088 C 59.442 200.776, 60.419 199.993, 64.500 194.828 C 67.861 190.574, 72.122 186.802, 77.500 183.319 C 98.519 169.706, 99.619 168.420, 107.388 148.349 C 112.917 134.065, 117.932 126.591, 125.740 120.999 C 132.728 115.995, 138.026 114.406, 153.889 112.553 C 169.682 110.708, 173.250 108.941, 187.500 95.911 C 201.807 82.827, 211.152 77.892, 222.904 77.212 C 229.743 76.816, 232.232 77.189, 241.507 80.002 C 254.901 84.064, 262.319 83.842, 274.378 79.015 C 293.677 71.291, 310.437 75.266, 328.282 91.798 C 338.517 101.280, 343.087 103.582, 354.498 105 C 365.362 106.350, 371.215 108.550, 379.317 114.332 C 389.900 121.884, 395.470 129.322, 401.577 144.054 C 406.301 155.453, 409.292 158.888, 418.788 163.829 C 427.817 168.526, 431.287 171.656, 434.492 177.992 C 443.606 196.010, 444.124 219.423, 435.796 236.914 C 427.420 254.504, 405.304 267.156, 385.500 265.687 C 376.211 264.998, 372.598 263.619, 373.867 261.248 C 375.422 258.343, 386.468 252.413, 398.646 247.947 C 407.905 244.550, 410.923 242.924, 414.597 239.354 C 423.411 230.787, 428.092 215.596, 425.984 202.399 C 423.457 186.583, 416.324 175.787, 404.356 169.666 C 399.125 166.991, 395.106 162.171, 390.557 153.116 C 383.280 138.630, 374.340 128.215, 365.192 123.569 C 363.372 122.645, 357.522 120.965, 352.192 119.835 C 341.152 117.496, 338.001 116.062, 325.631 107.749 C 320.753 104.471, 313.344 100.165, 309.166 98.181 C 302.534 95.031, 300.423 94.528, 292.535 94.212 C 284.641 93.895, 282.253 94.238, 273.627 96.925 C 261.581 100.677, 257.231 100.742, 243.330 97.382 C 219.909 91.721, 206.038 96.217, 187.500 115.481 C 177.568 125.802, 175.227 126.975, 164.500 127.006 C 152.763 127.040, 141.643 131.681, 133.064 140.126 C 127.424 145.678, 124.982 149.811, 119.101 163.754 C 113.932 176.012, 111.085 180.140, 103.345 186.598 C 92.897 195.316, 84.258 204.557, 81.535 209.931 C 77.303 218.281, 74.761 229.443, 75.449 236.652 C 76.183 244.352, 77.530 248.342, 81.230 253.783 C 85.557 260.148, 87.647 265.460, 89.919 275.874 C 93.504 292.297, 98.229 299.781, 110.578 308.593 C 114.291 311.242, 117.279 314.258, 118.060 316.146 C 119.256 319.031, 119.175 319.440, 117.070 321.144 C 114.177 323.487, 112.727 323.468, 104.683 320.984 C 89.236 316.213, 77.358 302.213, 73.043 283.691 C 70.771 273.942, 69.590 271.275, 63.661 262.519 C 55.963 251.150, 51.037 235.342, 50.968 221.792 C 50.939 215.994, 50.819 215.655, 49.444 217.475 C 47.395 220.185, 44.248 231.243, 43.461 238.500 C 42.586 246.563, 44.253 254.897, 49.027 266.323 C 52.796 275.341, 53 276.367, 53 286.256 C 53 295.971, 53.217 297.117, 56.190 303.090 C 58.391 307.514, 62.032 312.142, 67.940 318.028 C 84.283 334.311, 101.669 339.996, 135.128 339.999 C 146.060 340, 146.553 340.284, 147.872 347.346 C 148.914 352.924, 150.116 354.499, 155.433 357.252 C 160.540 359.897, 174.875 360.855, 181.517 358.995 C 183.976 358.307, 189.460 355.551, 193.703 352.872 L 201.418 348 210.856 348 C 220.074 348, 220.390 348.078, 224.397 351.345 C 226.654 353.184, 229.512 355.225, 230.750 355.880 C 232.905 357.020, 233 357.614, 233 369.921 C 233 379.375, 232.605 383.528, 231.506 385.636 C 229.577 389.334, 229.618 390.344, 231.773 392.294 C 232.955 393.364, 235.869 393.998, 240.523 394.199 L 247.500 394.500 247.803 400.969 C 248.308 411.724, 248.115 412, 240.103 412 C 232.395 412, 230.924 412.959, 230.779 418.080 C 230.645 422.794, 233.123 424.183, 241 423.809 L 247.500 423.500 247.786 433.207 L 248.071 442.915 240.312 443.207 C 233.261 443.473, 232.443 443.719, 231.358 445.901 C 230.106 448.421, 231.084 452.816, 233.187 454.116 C 235.086 455.289, 255.394 453.867, 256.892 452.456 C 258.037 451.377, 258.249 445.158, 258.081 417.539 C 257.882 384.751, 257.929 383.851, 260.020 380.468 C 263.208 375.309, 259.059 376.201, 252.215 382.147 C 248.566 385.317, 245.530 385.824, 244.607 383.418 C 244.273 382.548, 244.002 376.811, 244.004 370.668 C 244.007 361.299, 244.327 358.976, 245.989 356.250 L 247.971 353 240.202 353 C 232.981 353, 232.047 352.748, 226.966 349.430 C 223.960 347.466, 218.450 344.304, 214.723 342.403 L 207.946 338.948 203.617 341.484 C 196.044 345.922, 185.341 348.968, 174.913 349.651 C 165.704 350.255, 165.167 350.180, 164.077 348.143 C 162.478 345.157, 164.167 342.417, 168.089 341.632 C 169.828 341.284, 175.419 341, 180.516 341 C 187.121 341, 192.494 340.295, 199.231 338.545 L 208.681 336.089 216.090 338.758 C 222.940 341.225, 224.944 341.456, 242.589 341.803 C 265.585 342.256, 265.511 342.287, 264.475 332.613 C 263.902 327.257, 264.092 326.153, 266.009 323.716 C 267.212 322.186, 270.515 319.773, 273.349 318.355 C 276.182 316.937, 279.881 314.741, 281.568 313.476 C 284.552 311.239, 285.076 311.191, 300.568 311.724 C 314.845 312.216, 317.381 312.044, 324.981 310.070 C 341.507 305.777, 354.663 296.508, 361.275 284.500 L 364.579 278.500 379.539 277.898 C 395.532 277.254, 400.072 276.461, 410.709 272.458 C 438.905 261.845, 456.330 237.395, 457.716 206.500 C 458.845 181.327, 449.289 163.991, 427.190 151.123 C 422.111 148.165, 417.129 144.565, 416.119 143.123 C 415.110 141.680, 412.415 136.225, 410.132 131 C 399.632 106.977, 382.725 93.654, 360.054 91.536 C 350.933 90.684, 346.545 88.568, 337.690 80.752 C 328.017 72.215, 319.239 66.589, 311.336 63.860 C 305.767 61.937, 302.462 61.500, 293.500 61.500 C 283.217 61.500, 281.770 61.760, 271.300 65.481 L 260.100 69.463 248.944 65.660 C 235.726 61.153, 224.466 60.123, 214.131 62.474 M 280.030 112.286 C 278.672 112.970, 276.889 114.726, 276.068 116.188 C 274.727 118.578, 274.762 119.568, 276.414 125.939 C 278.622 134.452, 278.046 140.912, 274.390 148.641 C 272.090 153.502, 267.078 159, 264.946 159 C 262.787 159, 260.764 153.564, 260.115 146.013 C 259.526 139.150, 259.035 137.581, 256.773 135.318 C 250.835 129.381, 242.991 133.648, 243.010 142.806 C 243.021 148.119, 245.592 154.252, 251.862 163.926 C 256.277 170.737, 259 178.249, 259 183.616 C 259 185.405, 258.286 190.161, 257.414 194.185 C 255.200 204.392, 255.367 214.917, 257.894 224.438 C 259.052 228.804, 259.988 234.654, 259.974 237.438 C 259.950 242.092, 259.035 245.241, 253.127 261 C 250.958 266.786, 250.506 274.494, 251.909 281.750 C 253.016 287.471, 251.668 287.267, 245.309 280.750 C 231.297 266.392, 226.319 247.762, 232.149 231.506 C 234.312 225.473, 234.375 224.759, 232.966 222.248 C 229.273 215.669, 222.172 217.136, 218.113 225.317 C 216.124 229.325, 215.723 231.661, 215.711 239.314 C 215.702 244.663, 216.383 251.130, 217.339 254.797 C 221.158 269.431, 230.843 284.506, 240.830 291.362 C 243.345 293.088, 246.921 295.857, 248.779 297.516 L 252.157 300.532 252.474 318.392 C 252.802 336.907, 253.052 337.947, 257.179 337.985 C 261.545 338.025, 261.719 336.767, 261.912 303.640 C 262.014 286.320, 262.483 270.804, 262.955 269.159 C 263.426 267.513, 265.455 262.530, 267.462 258.085 C 273.603 244.483, 273.907 237.342, 269.083 220.020 C 266.515 210.799, 266.488 207.337, 268.897 196.239 C 269.941 191.433, 271.108 185.261, 271.492 182.523 C 272.385 176.160, 274.594 171.963, 280.978 164.500 C 292.038 151.570, 296.516 134.836, 292.518 121.373 C 290.232 113.675, 284.933 109.820, 280.030 112.286 M 223.217 115.561 C 221.991 116.419, 220.316 118.422, 219.494 120.011 C 217.900 123.094, 217.413 134, 218.870 134 C 219.349 134, 220.309 131.969, 221.004 129.486 C 221.804 126.629, 223.516 123.876, 225.669 121.986 C 229.398 118.711, 230.198 118.500, 233.066 120.035 C 234.675 120.897, 235 120.738, 235 119.092 C 235 114.749, 227.559 112.519, 223.217 115.561 M 251.346 117.028 C 248.235 119.047, 244.540 125.119, 245.206 127.117 C 245.394 127.682, 246.852 127.118, 248.446 125.864 C 250.040 124.610, 253.629 122.404, 256.422 120.960 C 259.215 119.517, 261.500 117.698, 261.500 116.918 C 261.500 114.603, 254.973 114.674, 251.346 117.028 M 192.923 123.923 C 188.569 128.277, 188.991 131.604, 194.589 137.042 C 197.807 140.167, 201.068 145.252, 205.497 154.051 C 212.153 167.274, 213.946 169.619, 216.615 168.594 C 218.033 168.050, 218.160 166.852, 217.553 159.732 C 216.847 151.453, 211.060 132.295, 207.385 126.075 C 204.014 120.369, 197.454 119.392, 192.923 123.923 M 324.188 123.796 C 322.917 123.994, 320.991 125.583, 319.910 127.328 C 318.201 130.085, 318.025 131.611, 318.568 139 C 319.099 146.216, 318.725 149.753, 316.096 162.423 C 312.839 178.120, 311.968 191.499, 314.250 190.764 C 314.938 190.542, 317.824 186.670, 320.664 182.158 C 332.868 162.770, 338.854 133.796, 332.134 126.643 C 329.595 123.940, 327.679 123.253, 324.188 123.796 M 358.090 133.947 C 351.117 135.685, 348.525 149.892, 354.091 155.867 C 355.552 157.436, 356.793 157.892, 358.329 157.428 C 363.291 155.925, 369 147.812, 369 142.262 C 369 136.761, 363.529 132.591, 358.090 133.947 M 149.569 154 C 150.229 157.746, 154.139 163.353, 157.775 165.767 C 161.468 168.218, 160.603 164.821, 156.250 159.774 C 154.188 157.383, 151.702 154.318, 150.726 152.963 L 148.952 150.500 149.569 154 M 177.015 153 C 176.999 153.825, 178.002 158.775, 179.243 164 L 181.500 173.500 181.813 168 C 181.985 164.975, 181.862 161.150, 181.541 159.500 C 180.872 156.065, 177.062 150.593, 177.015 153 M 139.266 179.045 C 131.352 180.099, 127.873 181.778, 126.148 185.377 C 124.210 189.420, 125.710 193.926, 129.785 196.306 C 132.733 198.028, 133.481 198.076, 138.259 196.848 C 146.008 194.855, 169.405 195.414, 179.250 197.826 C 183.512 198.870, 187 199.424, 187 199.057 C 187 197.634, 182.121 191.877, 178.402 188.912 C 168.223 180.797, 153.668 177.127, 139.266 179.045 M 391.813 181.033 C 388.521 184.325, 388.509 185.043, 391.610 193.107 C 393.339 197.605, 393.327 197.952, 391.097 207.790 C 388.837 217.757, 388.847 221.174, 391.154 227.178 C 393.521 233.338, 398.296 231.330, 400.551 223.226 C 401.428 220.077, 403.462 213.155, 405.072 207.844 C 409.643 192.770, 408.543 182.883, 401.915 179.456 C 397.702 177.277, 395.174 177.672, 391.813 181.033 M 214.789 180.363 C 212.297 182.257, 210.894 186.599, 211.919 189.250 C 213.032 192.132, 216.050 194.816, 223.344 199.412 C 226.557 201.438, 231.354 205.122, 234.003 207.599 L 238.818 212.104 239.478 209.101 C 240.361 205.078, 239.147 197.315, 236.953 192.955 C 234.871 188.818, 227.116 181.375, 223.427 179.972 C 219.968 178.657, 216.849 178.798, 214.789 180.363 M 288.217 183.561 C 285.147 185.711, 283 190.209, 283 194.490 C 283 198.994, 285.608 204.154, 290.944 210.207 C 300.447 220.986, 305.125 231.977, 305.125 243.525 C 305.125 256.086, 301.489 262.735, 289 273.015 C 276.199 283.550, 271.842 290.719, 271.616 301.612 C 271.526 305.958, 271.898 307.492, 273.250 308.363 C 276.412 310.399, 278.284 308.066, 278.469 301.858 C 278.735 292.948, 280.780 290.534, 294.031 283.485 C 303.891 278.240, 306.004 276.664, 309.094 272.244 C 312.753 267.012, 315.458 259.445, 318.475 246 C 319.400 241.875, 322.117 234.421, 324.511 229.435 C 328.045 222.077, 330.170 219.139, 335.796 213.831 C 345.280 204.884, 353.585 200.956, 370.275 197.520 C 376.388 196.262, 379.362 188.447, 375.171 184.655 C 370.411 180.347, 352.121 184.777, 339.197 193.369 C 331.464 198.510, 323.491 206.661, 318.347 214.684 C 316.519 217.535, 314.494 220.195, 313.846 220.595 C 310.629 222.583, 303.799 207.718, 301.611 193.969 C 300.587 187.536, 299.776 185.237, 298.033 183.826 C 295.270 181.588, 291.191 181.478, 288.217 183.561 M 111.364 208.458 C 108.630 210.373, 105.461 217.906, 103.984 226 C 101.719 238.412, 104.964 252.634, 111.782 260.180 C 114.926 263.661, 115.769 264.066, 119.311 263.800 C 122.284 263.576, 123.815 262.808, 125.320 260.783 L 127.341 258.067 123.506 250.783 C 118.782 241.811, 117.803 232.559, 120.380 221.230 C 122.156 213.421, 121.550 209.900, 118.114 208.061 C 115.441 206.631, 113.838 206.725, 111.364 208.458 M 140.455 210.455 C 137.557 213.352, 137.282 217.712, 139.475 225.955 C 141.891 235.033, 146.952 244.095, 152.930 250.044 C 161.263 258.339, 165.820 260.086, 182 261.190 C 199.007 262.351, 203.980 263.761, 213.482 270.116 C 217.679 272.924, 221.356 274.977, 221.653 274.680 C 222.604 273.729, 216.136 265.245, 211.666 261.582 C 205.707 256.700, 200.010 254.378, 186.848 251.466 C 180.649 250.095, 173.666 248.049, 171.332 246.919 C 162.975 242.873, 157.132 233.338, 155.004 220.275 C 153.545 211.311, 151.219 208, 146.382 208 C 144.028 208, 142.118 208.791, 140.455 210.455 M 366.598 222.102 C 365.129 223.257, 362.642 226.745, 361.072 229.852 C 357.380 237.161, 356.318 238.040, 344.659 243.451 C 332.719 248.993, 329.205 251.596, 324.609 258.304 C 320.635 264.104, 317.170 275.493, 318.448 278.556 C 319.103 280.128, 319.593 279.413, 321.007 274.815 C 325.028 261.745, 330.163 257.727, 344.927 256.100 C 351.270 255.401, 356.023 254.245, 359.457 252.565 C 369.845 247.482, 377.189 238.924, 378.569 230.294 C 379.175 226.503, 378.941 225.788, 376.198 223.044 C 372.615 219.461, 370.250 219.229, 366.598 222.102 M 180.293 225.147 C 180.900 229.675, 184.321 234.079, 185.958 232.442 C 186.599 231.801, 186.099 229.648, 184.515 226.231 C 181.533 219.793, 179.505 219.272, 180.293 225.147 M 459.707 252.016 C 456.943 254.190, 455.527 257.794, 454.527 265.202 C 453.651 271.685, 447.344 278.652, 438.800 282.574 C 432.902 285.282, 431.682 285.467, 419.671 285.483 C 408.138 285.498, 406.699 285.696, 405.421 287.441 C 401.545 292.735, 406.092 299.291, 414.516 300.555 C 429.762 302.841, 449.243 295.810, 461.430 283.622 C 469.223 275.830, 473.325 268.652, 473.809 261.965 C 474.206 256.479, 474.029 255.875, 471.194 253.040 C 467.580 249.426, 463.465 249.059, 459.707 252.016 M 130.831 271.530 C 127.278 273.459, 125.375 279.076, 126.970 282.928 C 129.876 289.944, 138.484 295.046, 147.218 294.930 C 156.438 294.807, 156.829 294.097, 150.624 288.740 C 146.497 285.177, 144.768 282.816, 143.510 279.029 C 141.832 273.977, 138.086 269.966, 135.115 270.040 C 134.227 270.062, 132.299 270.732, 130.831 271.530 M 191.223 271.557 C 182.400 277.736, 200.157 298.169, 221.500 306.397 C 233.892 311.175, 236.082 312.308, 238.524 315.211 C 241.156 318.338, 242.986 323.803, 242.994 328.559 C 242.997 330.241, 243.626 332.473, 244.390 333.519 C 245.584 335.152, 246.150 335.253, 248.390 334.232 C 250.680 333.189, 251 332.449, 251 328.203 C 251 321.023, 248.504 313.819, 244.662 309.914 C 242.816 308.036, 237.030 304.103, 231.805 301.174 C 220.727 294.964, 210.096 285.780, 206.324 279.162 C 202.292 272.086, 200.066 270, 196.548 270 C 194.841 270, 192.445 270.701, 191.223 271.557 M 113 284.716 C 109.843 285.849, 107 289.405, 107 292.220 C 107 296.105, 111.005 300, 115 300 C 119.614 300, 123.417 295.833, 122.587 291.687 C 121.598 286.740, 116.893 283.319, 113 284.716 M 166.712 304.012 C 161.055 308.462, 162.716 315.991, 170.340 320.459 C 176.927 324.319, 183.484 325.990, 194.750 326.676 C 205.727 327.346, 207.717 326.457, 201.936 323.467 C 200.251 322.596, 194.289 318.179, 188.686 313.652 C 172.482 300.558, 171.597 300.170, 166.712 304.012 M 412.302 324.944 C 409.771 327.328, 406.807 329.088, 404.808 329.394 C 402.988 329.673, 392.050 330.140, 380.500 330.434 C 349.697 331.216, 336.065 334.365, 321.696 344.019 C 312.746 350.032, 307.656 355.253, 300.755 365.499 C 297.792 369.898, 294.272 374.039, 292.934 374.700 C 291.595 375.361, 288.700 376.712, 286.500 377.701 C 283.120 379.221, 282.450 380.026, 282.176 382.895 C 281.791 386.927, 283.048 387.964, 288.349 387.985 C 295.621 388.014, 302.343 383.065, 310.059 372 C 326.497 348.429, 343.785 341.449, 389 340.128 C 410.086 339.512, 410.589 339.447, 415.145 336.770 C 420.196 333.800, 425 328.725, 425 326.358 C 425 319.829, 418.500 319.106, 412.302 324.944" stroke="none" fill="black" fill-rule="evenodd"/>
</svg>